<?xml version="1.0" encoding="utf-8"?>
<!-- Generator: Adobe Illustrator 16.2.0, SVG Export Plug-In . SVG Version: 6.00 Build 0)  -->
<!DOCTYPE svg PUBLIC "-//W3C//DTD SVG 1.1//EN" "http://www.w3.org/Graphics/SVG/1.1/DTD/svg11.dtd">
<svg version="1.1" xmlns="http://www.w3.org/2000/svg" xmlns:xlink="http://www.w3.org/1999/xlink" x="0px" y="0px"
	 width="595.28px" height="841.89px" viewBox="0 0 595.28 841.89" enable-background="new 0 0 595.28 841.89" xml:space="preserve">
<g id="Capa_1">
</g>
<g id="Capa_1_copia">
</g>
<g id="Capa_2" display="none">
	<path display="inline" fill="#030104" stroke="#C8A50F" stroke-miterlimit="10" d="M257.344,337.068
		c2.243-6.943,9.812-11.186,9.812-19.039c0-12.915-10.47-23.385-23.385-23.385c-12.915,0-23.385,10.47-23.385,23.385
		c0,7.854,7.568,12.096,9.813,19.039c3.43,10.607-14.244,52.103-14.244,52.103c0,3.263,2.644,5.908,5.907,5.908h43.817
		c3.263,0,5.908-2.645,5.908-5.908C271.587,389.171,253.913,347.676,257.344,337.068z"/>
</g>
<g id="Capa_4" display="none">
	<g display="inline">
		<g>
			<linearGradient id="SVGID_1_" gradientUnits="userSpaceOnUse" x1="103.9072" y1="338.9873" x2="425.1602" y2="338.9873">
				<stop  offset="0" style="stop-color:#ECC55A"/>
				<stop  offset="0.2976" style="stop-color:#F8F5BD"/>
				<stop  offset="0.7073" style="stop-color:#F1D12B"/>
				<stop  offset="1" style="stop-color:#CCA81C"/>
			</linearGradient>
			<path fill="url(#SVGID_1_)" d="M411.02,229.141c-13.943-8.718-30.254-10.232-46.311-10.126
				c-18.08,0.12-36.146,0.939-54.217,1.441c-36.377,1.01-72.856,0.549-109.193-1.343c-18.038-0.939-36.14-1.707-54.182-0.446
				c-8.668,0.606-17.31,1.685-25.829,3.408c-2.746,0.556-4.068,0.013-4.789,2.922c-0.495,1.997-0.974,3.998-1.437,6.002
				c-1.077,4.666-2.068,9.353-2.974,14.055c-2.749,14.274-3.49,28.423-4.713,42.869c-1.141,13.47-2.457,26.931-3.086,40.438
				c-1.199,25.748-0.187,53.091,11.974,76.431c6.424,12.329,15.971,23.153,27.532,30.898c14.668,9.826,31.56,13.29,48.574,16.771
				c59.463,12.164,125.943,11.197,181.537-15.251c16.263-7.737,34.919-17.08,43.582-33.715c7.498-14.399,8.02-31.373,7.545-47.251
				c-0.574-19.205-1.576-38.537-4.433-57.542C417.125,275.577,413.644,252.373,411.02,229.141
				C398,221,411.723,235.366,411.02,229.141z"/>
			<g>
				<path fill="#C8A50F" d="M412.281,226.982c-11.875-7.166-25.262-9.701-38.961-10.337c-15.724-0.731-31.621,0.304-47.34,0.827
					c-32.968,1.097-65.922,1.318-98.895,0.243c-31.841-1.039-63.709-4.206-95.449,0.076c-3.691,0.498-7.359,1.155-11.013,1.874
					c-1.586,0.312-3.262,0.295-4.569,1.369c-1.506,1.236-1.885,2.97-2.334,4.798c-0.94,3.824-1.796,7.667-2.62,11.518
					c-3.177,14.848-4.572,29.823-5.766,44.936c-4.268,54.05-14.261,121.995,38.672,156.525c11.746,7.662,25.667,11.336,39.21,14.293
					c13.588,2.967,27.278,5.347,41.089,6.991c28.208,3.358,56.813,3.219,84.922-0.946c27.289-4.043,53.317-12.855,77.731-25.623
					c10.331-5.402,20.68-12.073,27.884-21.412c8.211-10.645,11.32-23.692,12.424-36.872c1.271-15.173,0.021-30.765-0.964-45.922
					c-1.019-15.694-3.293-31.168-5.602-46.71c-2.452-16.504-4.784-33.026-6.738-49.597
					C413.753,231.215,414.13,228.109,412.281,226.982c-1.646-1.003-3.277-1.933-5.069-2.646c-2.133-0.85-4.947,0.686-4.233,3.235
					c1.24,4.424,10.857,8.97,10.541,1.57c-0.138-3.212-5.138-3.225-5,0c-0.095-2.206,2.953-0.175,1.181-1.201
					c-0.581-0.336-1.06-0.815-1.531-1.285c-0.107-0.118-0.214-0.236-0.321-0.354c-0.658-1.144-1.313-0.191-1.965,2.857
					c1.354,0.394,2.691,1.42,3.875,2.142c-0.413-0.72-0.825-1.439-1.238-2.159c3.664,32.152,10.033,64.07,12.514,96.335
					c1.179,15.331,2.098,30.922,1.45,46.297c-0.621,14.767-4.245,29.501-14.436,40.623c-8.545,9.327-20.296,15.33-31.513,20.791
					c-12.92,6.291-26.268,11.344-40.12,15.163c-28.037,7.732-57.375,9.984-86.358,8.812c-28.447-1.152-58.349-5.176-85.447-14.172
					c-29.056-9.646-47.901-34.103-54.711-63.327c-6.955-29.847-2.59-61.624-0.023-91.737c1.359-15.943,2.467-31.778,5.679-47.487
					c0.703-3.437,1.473-6.859,2.269-10.275c0.583-2.503,0.276-5.109,3.037-5.492c8.16-1.131,16.163-2.691,24.399-3.365
					c21.959-1.798,43.998-0.212,65.952,0.789c23.149,1.056,46.326,1.479,69.499,1.361c22.202-0.112,44.376-1.056,66.567-1.642
					c21.172-0.559,43.637-1.883,62.479,9.486C412.526,232.97,415.037,228.645,412.281,226.982z"/>
			</g>
		</g>
		<g>
			<linearGradient id="SVGID_2_" gradientUnits="userSpaceOnUse" x1="427.5781" y1="393.4707" x2="182.0437" y2="147.9362">
				<stop  offset="0" style="stop-color:#ECC55A"/>
				<stop  offset="0.2976" style="stop-color:#F8F5BD"/>
				<stop  offset="0.7073" style="stop-color:#F1D12B"/>
				<stop  offset="1" style="stop-color:#CCA81C"/>
			</linearGradient>
			<path fill="url(#SVGID_2_)" d="M400.162,215.026c-9.003-1.734-20.887-3.67-29.865-4.765c-29.978-3.654-60.166-4.743-90.26-5.138
				c-33.564-0.439-67.18,0.182-100.694,2.761c-11.976,0.921-23.958,2.069-35.87,3.96c-7.029,1.115-14.4,2.134-21.137,5.146
				c-6.226,2.782-4.094,9.826-4.094,17.448c0,6.567,3.002,7.178,7.626,8.661c20.594,6.604,42.799,7.17,63.866,8.513
				c34.292,2.187,68.666,2.596,102.989,1.803c28.464-0.658,57.069-1.84,85.383-5.946c8.196-1.189,18.882-2.182,26.736-5.692
				C411.675,238.724,415.629,218.006,400.162,215.026z"/>
			<g>
				<path fill="#C8A50F" d="M400.827,212.616c-29.503-5.624-59.38-8.122-89.366-9.25c-32.827-1.235-65.752-1.253-98.576,0.059
					c-16.245,0.649-32.487,1.687-48.667,3.283c-7.161,0.707-14.3,1.622-21.41,2.727c-7.143,1.11-15.264,1.914-21.734,5.398
					c-3.923,2.112-5.312,5.383-5.659,9.688c-0.224,2.771,0.184,5.634,0.301,8.403c0.102,2.398-0.092,5.175,1.179,7.347
					c1.862,3.178,4.963,4.177,8.308,5.24c7.665,2.436,15.525,4.035,23.474,5.209c13.594,2.008,27.358,2.535,41.057,3.393
					c15.167,0.951,30.347,1.574,45.539,1.908c30.793,0.678,61.664,0.229,92.425-1.34c14.913-0.761,29.801-2.001,44.613-3.911
					c11.128-1.435,24.183-1.855,34.313-7.102c5.2-2.693,6.809-10.51,6.728-15.749C413.233,220.218,408.237,214.312,400.827,212.616
					c-3.14-0.718-4.473,4.102-1.33,4.821c9.32,2.133,10.951,12.486,6.492,19.932c-2.476,4.132-9.982,4.735-14.227,5.563
					c-7.678,1.499-15.562,2.36-23.319,3.327c-32.285,4.021-65.007,4.723-97.508,4.992c-32.598,0.27-65.106-1.063-97.632-3.137
					c-15.812-1.008-31.587-2.693-46.771-7.426c-1.992-0.621-4.563-1.062-5.417-3.236c-0.998-2.539-0.471-6.215-0.629-8.918
					c-0.171-2.912-0.644-6.753,1.975-8.772c3.246-2.503,8.876-3.208,12.783-4.011c21.524-4.425,43.904-5.588,65.797-6.771
					c23.016-1.243,46.076-1.592,69.123-1.454c43.262,0.258,86.74,1.792,129.333,9.911
					C402.647,218.038,403.992,213.219,400.827,212.616z"/>
			</g>
		</g>
		<g>
			<linearGradient id="SVGID_3_" gradientUnits="userSpaceOnUse" x1="143.6333" y1="167.1992" x2="387.8398" y2="167.1992">
				<stop  offset="0" style="stop-color:#ECC55A"/>
				<stop  offset="0.2976" style="stop-color:#F8F5BD"/>
				<stop  offset="0.7073" style="stop-color:#F1D12B"/>
				<stop  offset="1" style="stop-color:#CCA81C"/>
			</linearGradient>
			<path fill="url(#SVGID_3_)" d="M367.625,237.277c-12.425,0-18.968-3.958-20.01-16.007c-1.3-15.057-3.164-30.28-8.788-44.423
				c-10.282-25.861-33.631-40.486-60.82-43.372c-28.868-3.064-61.438,6.099-79.421,30.146c-7.67,10.257-11.324,22.499-12.109,35.187
				c-0.699,11.295,3.208,21.981-2.097,32.152c-6.019,8.392-32.371,4.813-34.089,3.227c-6.023-5.562-6.71-13.27-6.654-20.984
				c0.188-29.149,9.667-60.331,30.828-80.954c41.837-40.775,118.106-46.692,166.469-14.403
				c21.996,14.685,36.56,40.989,42.662,66.521C387.747,201.738,395.532,237.277,367.625,237.277z"/>
			<g>
				<path fill="#C8A50F" d="M367.625,234.777c-4.927-0.063-10.191-0.445-13.937-4.014c-4.562-4.347-3.841-12.859-4.446-18.537
					c-1.485-13.932-4.114-27.828-9.987-40.631c-9.442-20.584-29.109-33.973-50.757-38.937c-22.633-5.19-47.721-1.766-68.161,9.153
					c-22.648,12.098-36.305,34.89-36.444,60.544c-0.039,7.182,1.513,14.281,0.331,21.448c-1.091,6.606-4.601,8.449-10.608,9.513
					c-4.286,0.759-8.802,0.584-13.122,0.28c-2.655-0.187-6.425-0.274-8.777-1.45c-2.719-1.36-4.114-6.366-4.795-9.028
					c-0.82-3.202-0.784-6.631-0.785-9.914c0-7.029,0.652-14.06,1.766-20.995c2.12-13.201,6.412-26.038,12.841-37.761
					c23.683-43.187,79.1-59.18,125.296-53.723c17.241,2.037,34.141,7.582,49.091,16.408c17.525,10.346,29.911,26.788,38.301,45.07
					c6.362,13.865,10.416,29.749,11.689,44.984C386.22,220.343,383.39,234.479,367.625,234.777c-3.221,0.061-3.227,5.061,0,5
					c42.843-0.812,15.035-72.638,4.374-91.298c-24.188-42.333-74.574-57.886-120.942-52.919
					c-22.453,2.405-44.472,9.901-63.217,22.575c-20.458,13.833-34.162,33.922-41.257,57.443
					c-3.667,12.158-5.294,24.952-5.446,37.626c-0.091,7.606,1.022,21.434,10.075,24.022c7.063,2.019,15.499,2.131,22.702,1.064
					c3.58-0.53,7.158-1.418,10.144-3.551c4.156-2.968,5.017-8.85,5.528-13.571c0.736-6.802-0.719-13.761-0.682-20.582
					c0.038-6.909,1.55-13.862,3.72-20.39c4.341-13.062,13.931-23.633,25.263-31.111c20.651-13.626,48.265-16.816,72.013-10.957
					c25.44,6.277,42.919,24.879,49.962,49.735c2.085,7.359,3.267,14.972,4.178,22.553c0.738,6.15,0.522,12.766,2.771,18.617
					c3.341,8.693,12.442,10.637,20.815,10.743C370.851,239.818,370.847,234.818,367.625,234.777z"/>
			</g>
		</g>
		<g>
			<path fill="#3E3D3E" d="M277.279,330.758c2.429-7.514,10.62-12.105,10.62-20.605c0-13.979-11.332-25.311-25.311-25.311
				s-25.31,11.332-25.31,25.311c0,8.5,8.19,13.09,10.62,20.605c3.713,11.481-15.416,56.392-15.416,56.392
				c0,3.531,2.862,6.395,6.394,6.395h47.424c3.531,0,6.395-2.863,6.395-6.395C292.695,387.15,273.567,342.239,277.279,330.758z"/>
			<g>
				<path fill="#C8A50F" d="M279.69,331.422c1.911-5.142,6.163-8.923,8.771-13.683c2.55-4.653,2.173-10.002,0.945-14.979
					c-2.451-9.939-11.021-17.352-20.723-19.745c-19.887-4.904-42.65,17.708-30.667,36.944c2.557,4.104,6.652,7.571,7.725,12.466
					c0.687,3.135-0.202,6.854-0.801,9.924c-1.68,8.617-4.579,17.027-7.53,25.277c-2.133,5.963-4.431,11.872-6.859,17.721
					c-1.813,4.367,2.512,10.698,8.566,10.698c9.782,0,19.563,0,29.345,0c4.952,0,9.904,0,14.856,0c3.849,0,8.314-0.136,10.443-4.058
					c2.216-4.082,1.215-5.761-0.199-9.235c-2.167-5.325-4.21-10.7-6.146-16.113c-2.293-6.412-4.392-12.902-6.083-19.5
					C280.113,342.381,278.291,336.322,279.69,331.422c0.887-3.107-3.938-4.424-4.821-1.329c-1.752,6.137,0.371,13.413,1.898,19.371
					c2.188,8.534,5.156,16.877,8.254,25.116c1.735,4.613,3.556,9.195,5.475,13.735c1.454,3.442-14.13,2.729-14.772,2.729
					c-12.282,0-24.564,0-36.847,0c-1.866,0-4.667-1.604-3.822-3.611c0.264-0.627,0.524-1.256,0.783-1.886
					c1.147-2.785,2.254-5.586,3.339-8.396c3.127-8.097,6.018-16.297,8.407-24.644c1.935-6.76,4.414-14.853,2.863-21.93
					c-1.195-5.453-5.941-9.652-8.797-14.236c-3.955-6.349-1.163-14.917,3.072-20.395c8.731-11.296,25.428-10.937,34.887-0.983
					c4.776,5.025,7.539,13.742,4.533,20.253c-2.484,5.38-7.17,9.212-9.275,14.877C273.743,333.122,278.577,334.417,279.69,331.422z"
					/>
			</g>
		</g>
		<g>
			<path fill="#030104" d="M274.587,387.271c0,0-17.674-41.496-14.243-52.104c2.243-6.943,9.812-11.186,9.812-19.039
				c0-12.915-9.47-22.385-22.385-22.385c-0.402,0-2.803,3.01-3.201,3.03c-3.313,4.28-4.29,5.646-4.29,11.478
				c0,8.5,8.19,13.091,10.62,20.605c3.713,11.48-15.416,56.393-15.416,56.393c-2.083,5.188,0.939,5.688,4.471,5.688l32.288,0.27
				C274.036,390.847,274.587,389.007,274.587,387.271z"/>
		</g>
	</g>
</g>
<g id="Capa_4_copia">
	<g>
		<linearGradient id="SVGID_4_" gradientUnits="userSpaceOnUse" x1="103.9072" y1="338.9873" x2="425.1602" y2="338.9873">
			<stop  offset="0" style="stop-color:#ECC55A"/>
			<stop  offset="0.2976" style="stop-color:#F8F5BD"/>
			<stop  offset="0.7073" style="stop-color:#F1D12B"/>
			<stop  offset="1" style="stop-color:#CCA81C"/>
		</linearGradient>
		<path fill="url(#SVGID_4_)" d="M411.02,229.141c-13.943-8.718-30.254-10.232-46.311-10.126c-18.08,0.12-36.146,0.939-54.217,1.441
			c-36.377,1.01-72.856,0.549-109.193-1.343c-18.038-0.939-36.14-1.707-54.182-0.446c-8.668,0.606-17.31,1.685-25.829,3.408
			c-2.746,0.556-4.068,0.013-4.789,2.922c-0.495,1.997-0.974,3.998-1.437,6.002c-1.077,4.666-2.068,9.353-2.974,14.055
			c-2.749,14.274-3.49,28.423-4.713,42.869c-1.141,13.47-2.457,26.931-3.086,40.438c-1.199,25.748-0.187,53.091,11.974,76.431
			c6.424,12.329,15.971,23.153,27.532,30.898c14.668,9.826,31.56,13.29,48.574,16.771c59.463,12.164,125.943,11.197,181.537-15.251
			c16.263-7.737,34.919-17.08,43.582-33.715c7.498-14.399,8.02-31.373,7.545-47.251c-0.574-19.205-1.576-38.537-4.433-57.542
			C417.125,275.577,413.644,252.373,411.02,229.141C398,221,411.723,235.366,411.02,229.141z"/>
		<g>
			<path fill="#C8A50F" d="M412.281,226.982c-11.875-7.166-25.262-9.701-38.961-10.337c-15.724-0.731-31.621,0.304-47.34,0.827
				c-32.968,1.097-65.922,1.318-98.895,0.243c-31.841-1.039-63.709-4.206-95.449,0.076c-3.691,0.498-7.359,1.155-11.013,1.874
				c-1.586,0.312-3.262,0.295-4.569,1.369c-1.506,1.236-1.885,2.97-2.334,4.798c-0.94,3.824-1.796,7.667-2.62,11.518
				c-3.177,14.848-4.572,29.823-5.766,44.936c-4.268,54.05-14.261,121.995,38.672,156.525c11.746,7.662,25.667,11.336,39.21,14.293
				c13.588,2.967,27.278,5.347,41.089,6.991c28.208,3.358,56.813,3.219,84.922-0.946c27.289-4.043,53.317-12.855,77.731-25.623
				c10.331-5.402,20.68-12.073,27.884-21.412c8.211-10.645,11.32-23.692,12.424-36.872c1.271-15.173,0.021-30.765-0.964-45.922
				c-1.019-15.694-3.293-31.168-5.602-46.71c-2.452-16.504-4.784-33.026-6.738-49.597
				C413.753,231.215,414.13,228.109,412.281,226.982c-1.646-1.003-3.277-1.933-5.069-2.646c-2.133-0.85-4.947,0.686-4.233,3.235
				c1.24,4.424,10.857,8.97,10.541,1.57c-0.138-3.212-5.138-3.225-5,0c-0.095-2.206,2.953-0.175,1.181-1.201
				c-0.581-0.336-1.06-0.815-1.531-1.285c-0.107-0.118-0.214-0.236-0.321-0.354c-0.658-1.144-1.313-0.191-1.965,2.857
				c1.354,0.394,2.691,1.42,3.875,2.142c-0.413-0.72-0.825-1.439-1.238-2.159c3.664,32.152,10.033,64.07,12.514,96.335
				c1.179,15.331,2.098,30.922,1.45,46.297c-0.621,14.767-4.245,29.501-14.436,40.623c-8.545,9.327-20.296,15.33-31.513,20.791
				c-12.92,6.291-26.268,11.344-40.12,15.163c-28.037,7.732-57.375,9.984-86.358,8.812c-28.447-1.152-58.349-5.176-85.447-14.172
				c-29.056-9.646-47.901-34.103-54.711-63.327c-6.955-29.847-2.59-61.624-0.023-91.737c1.359-15.943,2.467-31.778,5.679-47.487
				c0.703-3.437,1.473-6.859,2.269-10.275c0.583-2.503,0.276-5.109,3.037-5.492c8.16-1.131,16.163-2.691,24.399-3.365
				c21.959-1.798,43.998-0.212,65.952,0.789c23.149,1.056,46.326,1.479,69.499,1.361c22.202-0.112,44.376-1.056,66.567-1.642
				c21.172-0.559,43.637-1.883,62.479,9.486C412.526,232.97,415.037,228.645,412.281,226.982z"/>
		</g>
	</g>
	<g>
		<linearGradient id="SVGID_5_" gradientUnits="userSpaceOnUse" x1="427.5781" y1="393.4707" x2="182.0437" y2="147.9362">
			<stop  offset="0" style="stop-color:#ECC55A"/>
			<stop  offset="0.2976" style="stop-color:#F8F5BD"/>
			<stop  offset="0.7073" style="stop-color:#F1D12B"/>
			<stop  offset="1" style="stop-color:#CCA81C"/>
		</linearGradient>
		<path fill="url(#SVGID_5_)" d="M400.162,215.026c-9.003-1.734-20.887-3.67-29.865-4.765c-29.978-3.654-60.166-4.743-90.26-5.138
			c-33.564-0.439-67.18,0.182-100.694,2.761c-11.976,0.921-23.958,2.069-35.87,3.96c-7.029,1.115-14.4,2.134-21.137,5.146
			c-6.226,2.782-4.094,9.826-4.094,17.448c0,6.567,3.002,7.178,7.626,8.661c20.594,6.604,42.799,7.17,63.866,8.513
			c34.292,2.187,68.666,2.596,102.989,1.803c28.464-0.658,57.069-1.84,85.383-5.946c8.196-1.189,18.882-2.182,26.736-5.692
			C411.675,238.724,415.629,218.006,400.162,215.026z"/>
		<g>
			<path fill="#C8A50F" d="M400.827,212.616c-29.503-5.624-59.38-8.122-89.366-9.25c-32.827-1.235-65.752-1.253-98.576,0.059
				c-16.245,0.649-32.487,1.687-48.667,3.283c-7.161,0.707-14.3,1.622-21.41,2.727c-7.143,1.11-15.264,1.914-21.734,5.398
				c-3.923,2.112-5.312,5.383-5.659,9.688c-0.224,2.771,0.184,5.634,0.301,8.403c0.102,2.398-0.092,5.175,1.179,7.347
				c1.862,3.178,4.963,4.177,8.308,5.24c7.665,2.436,15.525,4.035,23.474,5.209c13.594,2.008,27.358,2.535,41.057,3.393
				c15.167,0.951,30.347,1.574,45.539,1.908c30.793,0.678,61.664,0.229,92.425-1.34c14.913-0.761,29.801-2.001,44.613-3.911
				c11.128-1.435,24.183-1.855,34.313-7.102c5.2-2.693,6.809-10.51,6.728-15.749C413.233,220.218,408.237,214.312,400.827,212.616
				c-3.14-0.718-4.473,4.102-1.33,4.821c9.32,2.133,10.951,12.486,6.492,19.932c-2.476,4.132-9.982,4.735-14.227,5.563
				c-7.678,1.499-15.562,2.36-23.319,3.327c-32.285,4.021-65.007,4.723-97.508,4.992c-32.598,0.27-65.106-1.063-97.632-3.137
				c-15.812-1.008-31.587-2.693-46.771-7.426c-1.992-0.621-4.563-1.062-5.417-3.236c-0.998-2.539-0.471-6.215-0.629-8.918
				c-0.171-2.912-0.644-6.753,1.975-8.772c3.246-2.503,8.876-3.208,12.783-4.011c21.524-4.425,43.904-5.588,65.797-6.771
				c23.016-1.243,46.076-1.592,69.123-1.454c43.262,0.258,86.74,1.792,129.333,9.911
				C402.647,218.038,403.992,213.219,400.827,212.616z"/>
		</g>
	</g>
	<g>
		<path fill="#3E3D3E" d="M277.279,330.758c2.429-7.514,10.62-12.105,10.62-20.605c0-13.979-11.332-25.311-25.311-25.311
			s-25.31,11.332-25.31,25.311c0,8.5,8.19,13.09,10.62,20.605c3.713,11.481-15.416,56.392-15.416,56.392
			c0,3.531,2.862,6.395,6.394,6.395h47.424c3.531,0,6.395-2.863,6.395-6.395C292.695,387.15,273.567,342.239,277.279,330.758z"/>
		<g>
			<path fill="#C8A50F" d="M279.69,331.422c1.911-5.142,6.163-8.923,8.771-13.683c2.55-4.653,2.173-10.002,0.945-14.979
				c-2.451-9.939-11.021-17.352-20.723-19.745c-19.887-4.904-42.65,17.708-30.667,36.944c2.557,4.104,6.652,7.571,7.725,12.466
				c0.687,3.135-0.202,6.854-0.801,9.924c-1.68,8.617-4.579,17.027-7.53,25.277c-2.133,5.963-4.431,11.872-6.859,17.721
				c-1.813,4.367,2.512,10.698,8.566,10.698c9.782,0,19.563,0,29.345,0c4.952,0,9.904,0,14.856,0c3.849,0,8.314-0.136,10.443-4.058
				c2.216-4.082,1.215-5.761-0.199-9.235c-2.167-5.325-4.21-10.7-6.146-16.113c-2.293-6.412-4.392-12.902-6.083-19.5
				C280.113,342.381,278.291,336.322,279.69,331.422c0.887-3.107-3.938-4.424-4.821-1.329c-1.752,6.137,0.371,13.413,1.898,19.371
				c2.188,8.534,5.156,16.877,8.254,25.116c1.735,4.613,3.556,9.195,5.475,13.735c1.454,3.442-14.13,2.729-14.772,2.729
				c-12.282,0-24.564,0-36.847,0c-1.866,0-4.667-1.604-3.822-3.611c0.264-0.627,0.524-1.256,0.783-1.886
				c1.147-2.785,2.254-5.586,3.339-8.396c3.127-8.097,6.018-16.297,8.407-24.644c1.935-6.76,4.414-14.853,2.863-21.93
				c-1.195-5.453-5.941-9.652-8.797-14.236c-3.955-6.349-1.163-14.917,3.072-20.395c8.731-11.296,25.428-10.937,34.887-0.983
				c4.776,5.025,7.539,13.742,4.533,20.253c-2.484,5.38-7.17,9.212-9.275,14.877C273.743,333.122,278.577,334.417,279.69,331.422z"
				/>
		</g>
	</g>
	<g>
		<path fill="#030104" d="M274.587,387.271c0,0-17.674-41.496-14.243-52.104c2.243-6.943,9.812-11.186,9.812-19.039
			c0-12.915-9.47-22.385-22.385-22.385c-0.402,0-2.803,3.01-3.201,3.03c-3.313,4.28-4.29,5.646-4.29,11.478
			c0,8.5,8.19,13.091,10.62,20.605c3.713,11.48-15.416,56.393-15.416,56.393c-2.083,5.188,0.939,5.688,4.471,5.688l32.288,0.27
			C274.036,390.847,274.587,389.007,274.587,387.271z"/>
	</g>
	<g>
		<linearGradient id="SVGID_6_" gradientUnits="userSpaceOnUse" x1="143.6333" y1="130.6992" x2="391.8242" y2="130.6992">
			<stop  offset="0" style="stop-color:#ECC55A"/>
			<stop  offset="0.2976" style="stop-color:#F8F5BD"/>
			<stop  offset="0.7073" style="stop-color:#F1D12B"/>
			<stop  offset="1" style="stop-color:#CCA81C"/>
		</linearGradient>
		<path fill="url(#SVGID_6_)" d="M367.625,238.277c-12.425,0-18.968-3.958-20.01-16.007c-1.3-15.057,11.316-43.292,1.212-104.423
			c-6.838-41.369-43.631-55.486-70.82-58.372c-28.868-3.064-61.438,6.099-79.421,30.146c-7.67,10.257-11.324,22.499-12.109,35.187
			c-0.699,11.295,3.208,21.981-2.097,32.152c-6.019,8.392-32.371,4.813-34.089,3.227c-6.023-5.562-6.71-13.27-6.654-20.984
			c0.188-29.149,9.667-60.331,30.828-80.954c41.837-40.775,118.106-46.692,166.469-14.403
			c21.996,14.685,57.996,40.636,49.662,141.521C389.125,203.166,395.532,238.277,367.625,238.277z"/>
		<g>
			<path fill="#C8A50F" d="M367.625,235.777c-4.927-0.063-10.191-0.445-13.937-4.014c-3.084-2.938-3.655-7.979-3.668-12.011
				c-0.018-5.595,1.114-11.21,1.946-16.722c3.008-19.95,4.037-39.848,2.484-59.994c-1.826-23.685-5.335-47.077-23.386-64.067
				c-13.329-12.545-31.578-19.088-49.446-21.552c-22.725-3.133-46.75,1.004-66.258,13.351c-22.35,14.145-33.02,38.558-31.104,64.562
				c0.445,6.041,2.077,16.175-2.639,20.982c-2.93,2.987-8.785,3.228-12.642,3.441c-4.121,0.229-8.324-0.008-12.41-0.571
				c-4.961-0.683-6.789-2.115-8.826-7.227c-2.315-5.808-1.706-12.803-1.427-18.915c0.322-7.067,1.316-14.08,2.766-21
				c2.74-13.081,7.714-25.626,14.859-36.921c26.034-41.157,82.799-55.093,128.323-47.468c28.982,4.854,58.916,20.408,76.163,44.941
				c17.14,24.38,20.853,55.839,20.899,84.854c0.017,10.163-0.874,20.236-1.381,30.372c-0.324,6.499-0.026,13.018-0.269,19.521
				C387.17,220.875,383.783,235.475,367.625,235.777c-3.221,0.06-3.227,5.061,0,5c8.006-0.15,14.885-2.981,19.438-9.74
				c4.363-6.475,5.153-15.089,5.564-22.659c0.449-8.293-0.047-16.596,0.618-24.881c1.104-13.77,1.408-27.614,0.664-41.41
				c-1.71-31.718-10.166-64.543-34.061-86.889C301.135,0.288,184.301,10.31,151.002,89.156c-4.866,11.522-7.663,23.739-9.073,36.139
				c-1.206,10.611-2.98,25.455,4.458,34.328c4.385,5.231,11.858,4.997,18.26,5.18c6.923,0.198,16.756-0.15,21.5-6.073
				c3.437-4.292,3.622-11.369,3.539-16.578c-0.125-7.864-1.183-15.376-0.123-23.249c1.891-14.043,8.391-26.439,18.577-36.212
				c18.194-17.455,45.444-23.132,69.867-20.714c18.694,1.851,37.653,8.909,51.231,22.167c18.71,18.271,20.07,46.884,20.92,71.473
				c0.627,18.144-1.602,35.807-4.149,53.706c-0.78,5.478-1.295,10.751-0.466,16.252c1.339,8.882,8.154,14.002,16.764,14.908
				c1.774,0.187,3.534,0.273,5.318,0.296C370.851,240.818,370.847,235.818,367.625,235.777z"/>
		</g>
	</g>
</g>
</svg>
